# xmcd
#
# Track frame offsets: 
#        150
#        19875
#        37408
#        59329
#        80444
#        99529
#        118196
#        134277
#        154204
#        176892
#        201045
#        217573
#        240225
#
# Disc length: 3484 seconds
#
# Revision: 0
# Processed by: cddbd v1.5.2PL0 Copyright (c) Steve Scherf et al.
# Submitted via: ExactAudioCopy v1.0b1
#
DISCID=b10d9a0d
DTITLE=Kolmiodraama - Jotain Tasottavaa
DYEAR=2011
DGENRE=Hip-Hop
TTITLE0=Jotain tasottavaa intro
TTITLE1=Passaa maissarii
TTITLE2=Lämmintä bissee ja kylmii naisii (feat. Lauri Räpping Vantaanj
TTITLE2=oki and Jodarok)
TTITLE3=Menetetyn miehen pelattu peli
TTITLE4=Älä luota prostituoituun (feat. Heikki Kuula)
TTITLE5=Kolmas pyörä
TTITLE6=Meni vähän vituiks (feat. Kreivi)
TTITLE7=Liikaa radioo(n)
TTITLE8=Polttopullofunk (feat. Hannibal)
TTITLE9=Se on vaan loossii
TTITLE10=Rosvosektori (feat. Käsipuoli)
TTITLE11=Pysy ninjana (feat. Eräs)
TTITLE12=Kantapään kautta
EXTD=
EXTT0=
EXTT1=
EXTT2=
EXTT3=
EXTT4=
EXTT5=
EXTT6=
EXTT7=
EXTT8=
EXTT9=
EXTT10=
EXTT11=
EXTT12=
PLAYORDER=
